<svg height="480pt" viewBox="0 0 480 479" width="480pt" xmlns="http://www.w3.org/2000/svg"><path d="m32 160.5h416v280h-416zm0 0" fill="#c6c5ca"/><path d="m200 368.5-16 72h-24l-16-72zm0 0" fill="#c6c5ca"/><path d="m336 368.5-16 72h-24l-16-72zm0 0" fill="#c6c5ca"/><path d="m272 296.5-16 72h-32l-16-72zm0 0" fill="#c6c5ca"/><path d="m296 440.5h-112l16-72h80zm0 0" fill="#ffeb99"/><path d="m160 440.5h-112l16-72h80zm0 0" fill="#ffeb99"/><path d="m296 296.5h-112l16-72h80zm0 0" fill="#ffeb99"/><path d="m432 440.5h-112l16-72h80zm0 0" fill="#ffeb99"/><path d="m472 104.5v24h-464v-32l232-88zm0 0" fill="#e0e0e2"/><g fill="#898890"><path d="m472 440.5v32h-464v-32zm0 0"/><path d="m456 128.5v32h-432v-32zm0 0"/><path d="m80 184.5h48v184h-48zm0 0"/><path d="m216 184.5h48v40h-48zm0 0"/><path d="m352 184.5h48v184h-48zm0 0"/></g><path d="m416 160.5v24h-80v-24zm0 0" fill="#e0e0e2"/><path d="m280 160.5v24h-80v-24zm0 0" fill="#e0e0e2"/><path d="m264 72.5c0 13.253906-10.746094 24-24 24s-24-10.746094-24-24c0-13.257812 10.746094-24 24-24s24 10.742188 24 24zm0 0" fill="#d80027"/><path d="m144 160.5v24h-80v-24zm0 0" fill="#e0e0e2"/><path d="m224 368.5h-112l16-72h80zm0 0" fill="#ffda44"/><path d="m368 368.5h-112l16-72h80zm0 0" fill="#ffda44"/><path d="m456 168.5c4.417969 0 8-3.582031 8-8v-24h8c4.417969 0 8-3.582031 8-8v-24c0-3.238281-1.953125-6.15625-4.945312-7.394531l-232-96c-1.878907-.777344-3.984376-.808594-5.886719-.085938l-232 88c-3.109375 1.175781-5.167969 4.152344-5.167969 7.480469v32c0 4.417969 3.582031 8 8 8h8v24c0 4.417969 3.582031 8 8 8v264h-16c-4.417969 0-8 3.578125-8 8v32c0 4.417969 3.582031 8 8 8h464c4.417969 0 8-3.582031 8-8v-32c0-4.421875-3.582031-8-8-8h-16.207031v-264zm-440-66.480469 223.871094-84.921875 224.128906 92.746094v10.65625h-448zm432 34.480469v16h-416v-16zm-145.601562 296-12.445313-56h36.0625l-12.414063 56zm-136 0-12.445313-56h36.0625l-12.414063 56zm25.601562-264v16c0 4.417969 3.582031 8 8 8h8v24h-8c-3.75 0-6.996094 2.601562-7.808594 6.261719l-14.589844 65.738281h-41.601562v-96h8c4.417969 0 8-3.582031 8-8v-16zm136 0v16c0 4.417969 3.582031 8 8 8h8v96h-41.601562l-14.605469-65.738281c-.8125-3.652344-4.050781-6.253907-7.792969-6.261719h-8v-24h8c4.417969 0 8-3.582031 8-8v-16zm-62.023438 192 12.421876-56h67.203124l12.4375 56zm-35.578124 0-12.445313-56h44.0625l-12.414063 56zm-108.421876 0 12.421876-56h67.203124l12.4375 56zm102.023438-168h32v24h-32zm49.601562 40 12.4375 56h-92.0625l12.421876-56zm-1.601562-56h-64v-8h64zm-136 0h-64v-8h64zm-16 16v103.125l-14.398438 64.875h-17.601562v-168zm17.601562 184 12.4375 56h-92.0625l12.421876-56zm68.796876 0h67.203124l12.4375 56h-92.0625zm136 0h67.203124l12.4375 56h-92.0625zm49.601562-16h-17.601562l-14.398438-64.875v-103.125h32zm-48-184v-8h64v8zm-304-8h16v16c0 4.417969 3.582031 8 8 8h8v168h-8c-3.75 0-6.996094 2.601562-7.808594 6.261719l-14.589844 65.738281h-1.601562zm424 296h-448v-16h448zm-24.207031-32h-1.394531l-14.605469-65.738281c-.8125-3.652344-4.050781-6.253907-7.792969-6.261719h-8v-168h8c4.417969 0 8-3.582031 8-8v-16h15.792969zm0 0"/><path d="m240 104.5c17.671875 0 32-14.328125 32-32 0-17.675781-14.328125-32-32-32s-32 14.324219-32 32c0 17.671875 14.328125 32 32 32zm0-48c8.835938 0 16 7.160156 16 16 0 8.835938-7.164062 16-16 16s-16-7.164062-16-16c0-8.839844 7.164062-16 16-16zm0 0"/><path d="m216 240.5h16v16h-16zm0 0"/><path d="m288 312.5h16v16h-16zm0 0"/><path d="m144 312.5h16v16h-16zm0 0"/><path d="m80 384.5h16v16h-16zm0 0"/><path d="m216 384.5h16v16h-16zm0 0"/><path d="m352 384.5h16v16h-16zm0 0"/></svg>